<svg width="50" height="40" viewBox="0 0 50 40" fill="none" xmlns="http://www.w3.org/2000/svg">
<path d="M48.5144 10.9626L40.2727 19.2043L35.5691 14.4922L39.124 10.9626C39.4069 10.6321 39.3878 10.1398 39.0801 9.83212C38.7727 9.52481 38.2805 9.5057 37.95 9.78863L34.3871 13.3101L32.0391 10.9541L40.2727 2.71234C40.5955 2.38755 40.5955 1.86317 40.2727 1.53838C39.9479 1.21562 39.4235 1.21562 39.0988 1.53838L30.266 10.3715C30.1083 10.5276 30.0197 10.7406 30.0197 10.9626C30.0197 11.1845 30.1083 11.3971 30.266 11.5536L31.4481 12.7272L30.266 13.9097C28.8685 12.5109 26.6799 12.2882 25.0295 13.3768L24.3803 12.7272C23.6003 11.9492 22.5434 11.5122 21.4414 11.5118C20.9207 11.5118 20.404 11.6077 19.9178 11.7951L18.4943 10.3715L19.0853 9.78863C19.243 9.63212 19.3317 9.41953 19.3317 9.19758C19.3317 8.97563 19.243 8.76263 19.0853 8.60653L10.8188 0.364826C10.4924 0.0404418 9.96477 0.0424742 9.64079 0.368891C9.31641 0.695307 9.31844 1.22253 9.64486 1.54692L17.2955 9.19758L16.7045 9.78009L12.542 13.9011L9.60339 10.9541C9.44689 10.7963 9.23429 10.7077 9.01235 10.7077C8.7904 10.7077 8.5774 10.7963 8.4213 10.9541C8.09814 11.2788 8.09814 11.8032 8.4213 12.128L11.368 15.0751L10.1859 16.2487L9.07861 17.4726L1.42794 9.78863C1.27185 9.63091 1.05884 9.54229 0.836898 9.54229C0.614951 9.54229 0.402354 9.63091 0.245853 9.78863C-0.0769053 10.1134 -0.0769053 10.6378 0.245853 10.9626L8.48756 19.2043C8.64488 19.36 8.85747 19.447 9.07861 19.4458C9.30015 19.447 9.51274 19.36 9.67006 19.2043L10.8188 18.0303L11.9924 19.2043C10.3676 20.8299 10.3676 23.4644 11.9924 25.09L13.5578 26.6302C13.7139 26.7879 13.9269 26.8765 14.1488 26.8765C14.3708 26.8765 14.5834 26.7879 14.7399 26.6302C15.0626 26.3054 15.0626 25.781 14.7399 25.4562L13.1997 23.9164C12.7293 23.4477 12.4651 22.8111 12.4651 22.1473C12.4651 21.4831 12.7293 20.8465 13.1997 20.3783L13.7826 19.7953L19.6764 13.9011C20.6658 12.9625 22.217 12.9625 23.2064 13.9011L28.501 19.1958C28.7839 19.5262 28.7648 20.0185 28.4575 20.3262C28.1498 20.6335 27.6575 20.6526 27.3274 20.3697L23.4893 16.532C23.1609 16.2056 22.6296 16.2072 22.3031 16.5361C21.9767 16.8649 21.9784 17.3958 22.3072 17.7222L26.1449 21.5603C26.8587 22.2794 27.936 22.4965 28.8721 22.1095C29.8087 21.7225 30.4184 20.8083 30.416 19.7953C30.4152 19.1332 30.1518 18.4982 29.6831 18.0303L26.2535 14.6003C27.2096 14.167 28.3331 14.358 29.092 15.0832L36.1602 22.1514C36.6256 22.6205 36.8862 23.2554 36.8846 23.9164C36.8862 24.5774 36.6256 25.2119 36.1602 25.681L33.8041 28.0371L31.39 30.4431L29.6831 32.1581L24.9714 36.8698C24.6466 37.1926 24.1222 37.1926 23.7974 36.8698C23.4747 36.5454 23.4747 36.021 23.7974 35.6963L29.1339 30.3846C29.3713 30.1813 29.475 29.8618 29.4018 29.5578C29.3286 29.2537 29.0912 29.0163 28.7872 28.9431C28.4827 28.87 28.1636 28.9732 27.9599 29.211L22.6568 34.5056C22.3267 34.7885 21.8345 34.7694 21.5267 34.4621C21.2194 34.1544 21.2003 33.6621 21.4832 33.3317L26.7779 28.0371C26.9356 27.881 27.0242 27.668 27.0242 27.446C27.0242 27.2241 26.9356 27.0115 26.7779 26.855C26.4531 26.5322 25.9287 26.5322 25.6039 26.855L20.3007 32.1581C19.9764 32.4809 19.452 32.4809 19.1272 32.1581C18.9695 32.0016 18.8809 31.789 18.8809 31.5671C18.8809 31.3451 18.9695 31.1321 19.1272 30.976L24.4218 25.681C24.5795 25.5249 24.6681 25.3119 24.6681 25.09C24.6681 24.868 24.5795 24.6554 24.4218 24.4989C24.097 24.1761 23.5726 24.1761 23.2478 24.4989L17.9451 29.8021C17.6187 30.126 17.0911 30.1244 16.7671 29.798C16.4427 29.4716 16.4447 28.9439 16.7711 28.62L23.173 22.2262C23.4995 21.8998 23.4995 21.3705 23.173 21.0441C22.8466 20.7177 22.3174 20.7177 21.991 21.0441L15.5557 27.4627C14.5818 28.4379 14.5818 30.0175 15.5557 30.9927C15.9858 31.4317 16.565 31.6935 17.1789 31.7252C17.2532 32.9926 18.267 34.0028 19.5349 34.0727C19.6052 35.3438 20.6203 36.3584 21.891 36.4288C21.9149 37.0548 22.1735 37.6495 22.6153 38.0938C23.3657 38.8425 24.5072 39.0364 25.4624 38.5767L26.1449 39.2677C26.8461 39.9693 27.8965 40.1897 28.8209 39.8287C29.7449 39.4677 30.3676 38.5942 30.4075 37.6027C31.0347 37.5836 31.631 37.3243 32.0725 36.8783C32.505 36.4442 32.7627 35.8666 32.7968 35.2548C34.068 35.1849 35.0826 34.1699 35.1529 32.8987C36.1443 32.8593 37.0179 32.2362 37.3789 31.3122C37.7402 30.3878 37.5199 29.3378 36.8179 28.6366L36.2269 28.0537L37.4089 26.8716C38.187 26.0916 38.624 25.0347 38.6244 23.9327C38.6049 23.1087 38.341 22.3091 37.8667 21.6351L39.124 20.3783L39.715 20.9693C40.0398 21.2921 40.5642 21.2921 40.889 20.9693L49.6965 12.1361C50.0193 11.8118 50.0193 11.287 49.6965 10.9626C49.5404 10.8049 49.3274 10.7163 49.1055 10.7163C48.8835 10.7163 48.6709 10.8049 48.5144 10.9626ZM12.0176 16.8482L17.3207 11.5536L18.4943 12.7272L13.1997 18.0303L12.0176 16.8482ZM28.501 38.0438C28.1762 38.3665 27.6518 38.3665 27.3274 38.0438L26.7364 37.4527L27.9185 36.2788L28.501 36.8617C28.6587 37.0178 28.7473 37.2308 28.7473 37.4527C28.7473 37.6747 28.6587 37.8877 28.501 38.0438ZM30.857 35.6877C30.5323 36.0105 30.0079 36.0105 29.6831 35.6877L29.1339 35.0967L29.725 34.5056L30.3075 33.9227L30.8989 34.5056C31.0562 34.6621 31.1448 34.8747 31.1448 35.0967C31.1448 35.3186 31.0562 35.5316 30.8989 35.6877H30.857ZM33.2131 33.3317C32.8883 33.6544 32.3639 33.6544 32.0391 33.3317L31.4481 32.7406L32.622 31.5671L33.2131 32.1581C33.5359 32.4829 33.5359 33.0073 33.2131 33.3317ZM35.5691 30.976C35.4126 31.1333 35.2 31.2219 34.9781 31.2219C34.7562 31.2219 34.5431 31.1333 34.3871 30.976L33.8041 30.3846L34.9614 29.211L35.5525 29.8021C35.8797 30.122 35.8874 30.6468 35.5691 30.976ZM36.7427 20.3783L31.4481 15.0832L32.622 13.9097L37.9252 19.2043L36.7427 20.3783Z" fill="#FFBB01"/>
</svg>
