<svg width="19" height="37" viewBox="0 0 19 37" fill="none" xmlns="http://www.w3.org/2000/svg">
<path d="M15.7213 14.7705V12.5736C17.7225 11.6247 18.9984 9.6083 19 7.39342V6.57375C19 3.40473 16.4314 0.836046 13.2623 0.836046H5.0656C3.90534 0.830443 2.7971 1.31712 2.01585 2.17482C1.2346 3.03251 0.853578 4.18117 0.967243 5.33624C1.18017 7.11046 2.49773 8.55329 4.24593 8.92631V13.1311C4.24553 15.0791 5.61632 16.758 7.52462 17.1474V19.1066C5.09242 19.8318 3.42546 22.0687 3.42626 24.6065V27.8852C3.42626 28.3379 3.79327 28.7049 4.24593 28.7049C4.69859 28.7049 5.0656 28.3379 5.0656 27.8852V24.6065C5.0656 22.3432 6.90066 20.5082 9.16396 20.5082H12.4427C14.706 20.5082 16.541 22.3432 16.541 24.6065V36.082C16.541 36.5346 16.908 36.9016 17.3607 36.9016C17.8133 36.9016 18.1804 36.5346 18.1804 36.082V24.6065C18.1812 22.0687 16.5142 19.8318 14.082 19.1066V17.0902C15.065 16.7428 15.7217 15.8131 15.7213 14.7705ZM2.60659 5.18015C2.54455 4.48975 2.77669 3.80536 3.24576 3.29506C3.70922 2.77676 4.3704 2.47899 5.0656 2.47539H13.2623C15.5256 2.47539 17.3607 4.31045 17.3607 6.57375V7.39342C17.3595 9.10241 16.2977 10.6313 14.6968 11.2296H14.6311C14.2489 11.3657 13.8483 11.443 13.4428 11.459H11.623C11.1703 11.459 10.8033 11.092 10.8033 10.6393V8.2131C10.8033 7.76044 10.4363 7.39342 9.98364 7.39342H5.20488C3.90253 7.42224 2.78509 6.47089 2.60659 5.18015ZM5.88528 13.1311V9.03277H9.16396V10.6721C9.16396 12.0301 10.265 13.1311 11.623 13.1311H13.5081C13.705 13.1311 13.8935 13.1311 14.082 13.0819V14.7705C14.082 15.2231 13.715 15.5901 13.2623 15.5901H8.34429C6.98631 15.5901 5.88528 14.4891 5.88528 13.1311ZM9.16396 18.8688V17.2295H12.4427V18.8688H9.16396Z" fill="#FFBB01"/>
</svg>
