<svg width="39" height="50" viewBox="0 0 39 50" fill="none" xmlns="http://www.w3.org/2000/svg">
<path d="M37.4936 38.3352C37.0335 38.3352 36.6604 38.7082 36.6604 39.1684V47.5003C36.6604 47.9608 36.2874 48.3335 35.8272 48.3335H2.49957C2.03945 48.3335 1.66638 47.9608 1.66638 47.5003V2.50794C1.66638 2.04781 2.03945 1.67474 2.49957 1.67474H35.8272C36.2874 1.67474 36.6604 2.04781 36.6604 2.50794V18.1555C36.6604 18.6156 37.0335 18.9887 37.4936 18.9887C37.9537 18.9887 38.3268 18.6156 38.3268 18.1555V2.50794C38.3268 1.12756 37.2076 0.00836182 35.8272 0.00836182H2.49957C1.11919 0.00836182 0 1.12756 0 2.50794V47.5003C0 48.8811 1.11919 49.9998 2.49957 49.9998H35.8272C37.2076 49.9998 38.3268 48.8811 38.3268 47.5003V39.1684C38.3268 38.7082 37.9537 38.3352 37.4936 38.3352Z" fill="#FFBB01"/>
</svg>
