<svg width="12" height="50" viewBox="0 0 12 50" fill="none" xmlns="http://www.w3.org/2000/svg">
<path d="M10.3277 35.6352V33.3352H11.1609C11.3908 33.3369 11.6109 33.2433 11.7692 33.0769C11.9107 32.9186 11.9909 32.7144 11.9941 32.502L10.5026 4.17195C10.3606 1.87892 8.459 0.0916138 6.16149 0.0916138C3.86399 0.0916138 1.96236 1.87892 1.82037 4.17195L0.328841 32.502C0.321925 32.729 0.402482 32.9495 0.553831 33.1188C0.719014 33.2697 0.938308 33.3478 1.16208 33.3352H1.99531V35.6352L0.420383 38.7932C0.301582 39.0287 0.301582 39.307 0.420383 39.543L5.4198 49.5418C5.46049 49.6338 5.52029 49.716 5.59475 49.7835C5.69199 49.8734 5.80916 49.9393 5.9365 49.9751H6.39462C6.52237 49.9393 6.63955 49.8734 6.73638 49.7835C6.81124 49.716 6.87064 49.6338 6.91133 49.5418L11.9107 39.543C12.0295 39.307 12.0295 39.0287 11.9107 38.7932L10.3277 35.6352ZM2.03681 31.6688L2.38711 25.0029H9.93588L10.3277 31.6688H2.03681ZM3.48684 4.21386C3.48684 2.73657 4.68421 1.53879 6.16149 1.53879C7.63878 1.53879 8.83615 2.73657 8.83615 4.21386L9.84433 23.3783H2.47866L2.5702 21.7118H7.21118C7.67174 21.7118 8.04441 21.3387 8.04441 20.8786C8.04441 20.418 7.67174 20.0454 7.21118 20.0454H2.6536L3.48684 4.21386ZM8.6612 33.3352V35.0017H3.66179V33.3352H8.6612ZM6.99473 45.634V40.0011H7.82797C8.28812 40.0011 8.6612 39.628 8.6612 39.1679C8.6612 38.7077 8.28812 38.3347 7.82797 38.3347H4.49502C4.03487 38.3347 3.66179 38.7077 3.66179 39.1679C3.66179 39.628 4.03487 40.0011 4.49502 40.0011H5.32826V45.634L2.0954 39.1679L3.34525 36.6682H8.97774L10.2276 39.1679L6.99473 45.634Z" fill="#FFBB01"/>
</svg>
