<svg width="47" height="45" viewBox="0 0 47 45" fill="none" xmlns="http://www.w3.org/2000/svg">
<path d="M26.8377 43.327C26.6628 43.327 4.16606 43.327 4.16606 43.327C2.78565 43.327 1.66642 42.2078 1.66642 40.8274V14.1646H44.9935V29.5457C44.9935 30.0058 45.3665 30.3789 45.8267 30.3789C46.2868 30.3789 46.6599 30.0058 46.6599 29.5457V8.33212C46.6599 6.03143 44.7945 4.16606 42.4938 4.16606H40.8274V3.33285C40.8274 2.87271 40.4543 2.49964 39.9942 2.49964C39.5341 2.49964 39.161 2.87271 39.161 3.33285V6.6657C39.161 7.58598 38.4148 8.33212 37.4946 8.33212C36.5743 8.33212 35.8281 7.58598 35.8281 6.6657V3.33285C35.8281 2.41257 36.5743 1.66642 37.4946 1.66642C37.9547 1.66642 38.3278 1.29335 38.3278 0.833212C38.3278 0.373074 37.9547 0 37.4946 0C35.654 0 34.1617 1.4923 34.1617 3.33285V4.16606H26.6628V3.33285C26.6628 2.87271 26.2897 2.49964 25.8296 2.49964C25.3694 2.49964 24.9964 2.87271 24.9964 3.33285V6.6657C24.9964 7.58598 24.2502 8.33212 23.3299 8.33212C22.4097 8.33212 21.6635 7.58598 21.6635 6.6657V3.33285C21.6635 2.41257 22.4097 1.66642 23.3299 1.66642C23.7901 1.66642 24.1632 1.29335 24.1632 0.833212C24.1632 0.373074 23.7901 0 23.3299 0C21.4894 0 19.9971 1.4923 19.9971 3.33285V4.16606H12.4982V3.33285C12.4982 2.87271 12.1251 2.49964 11.665 2.49964C11.2048 2.49964 10.8318 2.87271 10.8318 3.33285V6.6657C10.8318 7.58598 10.0856 8.33212 9.16534 8.33212C8.24506 8.33212 7.49891 7.58598 7.49891 6.6657V3.33285C7.49891 2.41257 8.24506 1.66642 9.16534 1.66642C9.62547 1.66642 9.99855 1.29335 9.99855 0.833212C9.99855 0.373074 9.62547 0 9.16534 0C7.32478 0 5.83249 1.4923 5.83249 3.33285V4.16606H4.16606C1.86537 4.16606 0 6.03143 0 8.33212V40.8274C0 43.1281 1.86537 44.9935 4.16606 44.9935H23.3299C27.7043 44.9935 27.7043 44.9935 27.7043 44.1603C27.7055 43.9389 27.6185 43.7257 27.4626 43.5687C27.2975 43.4043 27.0709 43.3165 26.8377 43.327ZM4.16606 5.83249H5.83249V6.6657C5.83249 8.50625 7.32478 9.99855 9.16534 9.99855C11.0059 9.99855 12.4982 8.50625 12.4982 6.6657V5.83249H19.9971V6.6657C19.9971 8.50625 21.4894 9.99855 23.3299 9.99855C25.1705 9.99855 26.6628 8.50625 26.6628 6.6657V5.83249H34.1617V6.6657C34.1617 8.50625 35.654 9.99855 37.4946 9.99855C39.3351 9.99855 40.8274 8.50625 40.8274 6.6657V5.83249H42.4938C43.8742 5.83249 44.9935 6.95171 44.9935 8.33212V12.4982H1.66642V8.33212C1.66642 6.95171 2.78565 5.83249 4.16606 5.83249Z" fill="#FFBB01"/>
</svg>
