<svg width="9" height="10" viewBox="0 0 9 10" fill="none" xmlns="http://www.w3.org/2000/svg">
<path d="M8.42127 0.905909C8.26463 0.748054 8.05185 0.659363 7.82972 0.659363C7.60758 0.659363 7.3944 0.748054 7.23817 0.905909L4.49687 3.65535L1.75557 0.905909C1.42888 0.579215 0.899168 0.579215 0.572474 0.905909C0.24578 1.2326 0.24578 1.76231 0.572474 2.08901L3.32191 4.83031L0.572474 7.57161C0.414619 7.72783 0.325928 7.94102 0.325928 8.16316C0.325928 8.38529 0.414619 8.59848 0.572474 8.7547C0.728701 8.91256 0.941886 9.00125 1.16402 9.00125C1.38616 9.00125 1.59894 8.91256 1.75557 8.7547L4.49687 6.00527L7.23817 8.7547C7.3944 8.91256 7.60758 9.00125 7.82972 9.00125C8.05185 9.00125 8.26463 8.91256 8.42127 8.7547C8.57912 8.59848 8.66781 8.38529 8.66781 8.16316C8.66781 7.94102 8.57912 7.72783 8.42127 7.57161L5.67183 4.83031L8.42127 2.08901C8.57912 1.93278 8.66781 1.71959 8.66781 1.49746C8.66781 1.27532 8.57912 1.06214 8.42127 0.905909Z" fill="#FFBB01"/>
</svg>
