<svg width="17" height="35" viewBox="0 0 17 35" fill="none" xmlns="http://www.w3.org/2000/svg">
<path d="M9.01639 18.5082C11.2797 18.5082 13.1148 20.3432 13.1148 22.6066V25.8852C13.1148 26.3379 13.4818 26.7049 13.9344 26.7049C14.3871 26.7049 14.7541 26.3379 14.7541 25.8852V22.6066C14.7549 20.0687 13.0879 17.8318 10.6557 17.1066V15.1475C12.564 14.758 13.9348 13.0791 13.9344 11.1311V6.92632C15.3813 6.5525 16.3922 5.24815 16.3934 3.75409V1.29507C16.3934 0.842414 16.0264 0.475403 15.5738 0.475403H6.55738C3.84141 0.475403 1.63934 2.67747 1.63934 5.39344V8.67212C1.64055 10.1662 2.65153 11.4705 4.09836 11.8444V17.1066C1.66616 17.8318 -0.000800173 20.0687 2.88155e-07 22.6066V34.082C2.88155e-07 34.5346 0.367012 34.9016 0.819672 34.9016C1.27233 34.9016 1.63934 34.5346 1.63934 34.082V22.6066C1.63934 20.3432 3.4744 18.5082 5.73771 18.5082H9.01639ZM12.2951 11.1311C12.2951 12.4891 11.194 13.5902 9.83607 13.5902H5.73771V11.9508H6.55738C7.4627 11.9508 8.19672 11.2168 8.19672 10.3115V7.03278H12.2951V11.1311ZM3.27869 8.67212V5.39344C3.27869 3.58279 4.74673 2.11475 6.55738 2.11475H14.7541V3.75409C14.7541 4.65941 14.0201 5.39344 13.1148 5.39344H7.37705C6.92439 5.39344 6.55738 5.76045 6.55738 6.21311V10.3115H4.91803C4.01271 10.3115 3.27869 9.57745 3.27869 8.67212ZM5.73771 15.2295H9.01639V16.8688H5.73771V15.2295Z" fill="#FFBB01"/>
</svg>
