<svg width="42" height="13" viewBox="0 0 42 13" fill="none" xmlns="http://www.w3.org/2000/svg">
<path d="M40.2623 0.606567C39.8097 0.606567 39.4426 0.973579 39.4426 1.42624V8.80329C39.4426 10.1613 38.3416 11.2623 36.9836 11.2623H28.7869V7.98362H35.3443C35.797 7.98362 36.164 7.61661 36.164 7.16394V1.42624C36.164 0.973579 35.797 0.606567 35.3443 0.606567C34.8916 0.606567 34.5246 0.973579 34.5246 1.42624V6.34427H26.3279C25.1572 6.34547 24.0758 6.97103 23.4911 7.98522C22.9063 8.9994 22.9063 10.2485 23.4919 11.2623H17.6885C18.2741 10.2485 18.2741 8.9994 17.6893 7.98522C17.1046 6.97103 16.0232 6.34547 14.8525 6.34427H6.65577V1.42624C6.65577 0.973579 6.28875 0.606567 5.83609 0.606567C5.38343 0.606567 5.01642 0.973579 5.01642 1.42624V7.16394C5.01642 7.61661 5.38343 7.98362 5.83609 7.98362H12.3935V11.2623H4.19675C2.83877 11.2623 1.73773 10.1613 1.73773 8.80329V1.42624C1.73773 0.973579 1.37072 0.606567 0.918061 0.606567C0.4654 0.606567 0.0983887 0.973579 0.0983887 1.42624V8.80329C0.0983887 11.0666 1.93345 12.9016 4.19675 12.9016H36.9836C39.2469 12.9016 41.082 11.0666 41.082 8.80329V1.42624C41.082 0.973579 40.715 0.606567 40.2623 0.606567ZM14.0328 11.2623V7.98362H14.8525C15.7578 7.98362 16.4918 8.71764 16.4918 9.62296C16.4918 10.5283 15.7578 11.2623 14.8525 11.2623H14.0328ZM24.6886 9.62296C24.6886 8.71764 25.4226 7.98362 26.3279 7.98362H27.1476V11.2623H26.3279C25.4226 11.2623 24.6886 10.5283 24.6886 9.62296Z" fill="#FFBB01"/>
</svg>
