<svg width="15" height="19" viewBox="0 0 15 19" fill="none" xmlns="http://www.w3.org/2000/svg">
<path d="M2.67215 0.0327759C1.31417 0.0327759 0.213135 1.13381 0.213135 2.49179V10.6885C0.213135 12.0465 1.31417 13.1475 2.67215 13.1475H7.20476L11.0574 17.7706C11.2787 18.0359 11.6425 18.1344 11.9671 18.0163C12.2917 17.8991 12.5082 17.5909 12.5082 17.2459V13.1475C13.8662 13.1475 14.9672 12.0465 14.9672 10.6885V2.49179C14.9672 1.13381 13.8662 0.0327759 12.5082 0.0327759H2.67215ZM13.3279 2.49179V10.6885C13.3279 11.1412 12.9609 11.5082 12.5082 11.5082H11.6885C11.2359 11.5082 10.8689 11.8752 10.8689 12.3278V14.9838L8.22135 11.8031C8.06526 11.6158 7.83392 11.5078 7.59018 11.5082H2.67215C2.21949 11.5082 1.85248 11.1412 1.85248 10.6885V2.49179C1.85248 2.03913 2.21949 1.67212 2.67215 1.67212H12.5082C12.9609 1.67212 13.3279 2.03913 13.3279 2.49179Z" fill="#FFBB01"/>
</svg>
