<svg width="30" height="34" viewBox="0 0 30 34" fill="none" xmlns="http://www.w3.org/2000/svg">
<path d="M29.9035 1.85194C29.7314 1.212 29.3116 0.666436 28.7371 0.335682C28.1623 0.00330029 27.4788 -0.0866095 26.8376 0.0854804C26.1973 0.257977 25.6517 0.677421 25.3209 1.25187L24.9043 1.97684C24.5085 1.74942 24.0028 1.88327 23.7713 2.27708L21.655 5.88446L20.93 5.46786C20.738 5.3568 20.5093 5.32669 20.2953 5.38446C20.0809 5.44264 19.8987 5.58341 19.7884 5.77624C19.5626 6.17453 19.7002 6.68063 20.0968 6.90927L20.8218 7.32587L13.7397 19.5988L11.9899 24.2733L11.1567 25.831C10.6689 26.6797 10.721 27.7346 11.2901 28.5308L9.41545 30.8302L8.89063 29.5141C8.65386 28.9274 8.10586 28.5255 7.47567 28.4762C6.84508 28.4266 6.24094 28.7382 5.91588 29.2805L5.61605 29.7887L5.33289 26.4559C5.2678 25.6675 4.65714 25.0336 3.87196 24.9384C3.08637 24.8436 2.34268 25.3143 2.09166 26.0645L0.0420446 32.2134C-0.10116 32.6483 0.133175 33.117 0.566858 33.2634C0.648224 33.3013 0.735693 33.324 0.825196 33.3297C1.18321 33.331 1.50216 33.1027 1.61689 32.7634L3.65797 26.6146L3.94966 29.997C4.00987 30.7187 4.52858 31.3188 5.23403 31.4823C5.93948 31.6459 6.66933 31.335 7.04077 30.7138L7.34915 30.2053L7.86583 31.5136C8.08511 32.0649 8.58104 32.4583 9.16809 32.5458C9.75515 32.6332 10.3442 32.4018 10.7153 31.9384L12.6567 29.4807C12.8715 29.5368 13.0928 29.5649 13.3149 29.5641C14.2079 29.571 15.037 29.1007 15.4894 28.3306L16.3226 26.9392L19.4971 23.0816L26.6541 10.6586L27.3791 11.0752C27.5723 11.1859 27.7131 11.3686 27.7705 11.5838C27.8282 11.7974 27.7981 12.0252 27.6875 12.2168L24.3547 17.991C24.229 18.1805 24.1863 18.4133 24.2367 18.6354C24.2872 18.8571 24.4259 19.0487 24.6212 19.1655C24.8132 19.277 25.0419 19.3071 25.2558 19.2493C25.4702 19.1911 25.6525 19.0504 25.7628 18.8575L29.0955 13.0833C29.4279 12.5085 29.5178 11.825 29.3453 11.1839C29.1728 10.5435 28.7534 9.99794 28.1789 9.66718L27.454 9.25059L29.5369 5.6428C29.7644 5.24695 29.6305 4.74167 29.2371 4.50978L29.6537 3.7848C29.995 3.201 30.0853 2.50369 29.9035 1.85194ZM26.7623 2.08506C26.8726 1.89222 27.0557 1.75105 27.2709 1.69369C27.4849 1.6408 27.7111 1.6705 27.9039 1.77709C28.0972 1.88734 28.2379 2.07041 28.2957 2.28522C28.3486 2.49921 28.3189 2.72541 28.2123 2.91825L27.7957 3.64322L26.3458 2.81003L26.7623 2.08506ZM15.406 25.3481L14.9894 25.1064L13.7563 24.3896L14.9394 21.2236L17.5639 22.7399L15.406 25.3481ZM12.9065 27.7557C12.5546 27.5104 12.4463 27.0385 12.6567 26.6642L13.0733 25.9396L14.5228 26.7728L14.1062 27.4893C13.9895 27.6919 13.7934 27.8359 13.5651 27.8867C13.3369 27.9372 13.0981 27.89 12.9065 27.7557ZM18.5138 21.3738L15.631 19.7074L22.2966 8.15906L25.1794 9.82544L18.5138 21.3738ZM26.0126 8.38404L23.1297 6.71765L24.7961 3.83484L27.6789 5.50122L26.0126 8.38404Z" fill="#FFBB01"/>
</svg>
