<svg width="14" height="24" viewBox="0 0 14 24" fill="none" xmlns="http://www.w3.org/2000/svg">
<path d="M13.9965 7.33517C13.9953 6.40917 13.4826 5.55925 12.6632 5.12717C12.9358 4.24186 12.6966 3.27883 12.042 2.6238C11.3869 1.96917 10.4239 1.72994 9.53858 2.00253C9.10488 1.18557 8.25577 0.674561 7.33059 0.674561C6.4054 0.674561 5.5563 1.18557 5.12259 2.00253C4.23728 1.72994 3.27425 1.96917 2.61922 2.6238C1.96459 3.27883 1.72536 4.24186 1.99795 5.12717C1.18058 5.56088 0.669983 6.40998 0.669983 7.33517C0.669983 8.26035 1.18058 9.10986 1.99795 9.54316C1.72536 10.4264 1.96256 11.3878 2.61434 12.0429C2.77708 12.2052 2.9622 12.3427 3.1644 12.4514V23.1667C3.16603 23.5031 3.36986 23.8054 3.68111 23.9332C3.99113 24.0638 4.34957 23.9946 4.58921 23.7582L7.33059 21.0087L10.072 23.7582C10.229 23.9145 10.4422 24.0011 10.6635 23.9999C10.773 24.0028 10.8812 23.98 10.9801 23.9332C11.2913 23.8054 11.4951 23.5031 11.4968 23.1667V12.4595C11.699 12.3509 11.8841 12.2133 12.0468 12.0514C12.6986 11.396 12.9358 10.435 12.6632 9.55171C13.4851 9.118 13.9985 8.26442 13.9965 7.33517ZM7.92215 19.2422C7.76592 19.0843 7.55273 18.9956 7.33059 18.9956C7.10844 18.9956 6.89525 19.0843 6.73902 19.2422L4.83088 21.1584V12.7431L5.12259 12.6678C5.5563 13.4852 6.4054 13.9958 7.33059 13.9958C8.25577 13.9958 9.10488 13.4852 9.53858 12.6678L9.8303 12.7431V21.1584L7.92215 19.2422ZM11.4968 8.1684H11.3552C11.0159 8.16678 10.7091 8.37102 10.5801 8.68511C10.452 8.99717 10.5244 9.3556 10.7636 9.59321L10.8637 9.69329C11.1867 10.0184 11.1867 10.5432 10.8637 10.8683C10.7718 10.9647 10.657 11.0363 10.5301 11.0766H10.4052C10.1428 11.1173 9.87668 11.0306 9.68871 10.8431L9.58863 10.743C9.35021 10.5029 8.99014 10.4305 8.67768 10.5603C8.36481 10.6901 8.16179 10.9964 8.16382 11.3349V11.5014C8.16382 11.9615 7.79074 12.3346 7.33059 12.3346C6.87044 12.3346 6.49735 11.9615 6.49735 11.5014V11.3598C6.49898 11.0205 6.29474 10.7137 5.98065 10.5847C5.88015 10.5448 5.77234 10.5253 5.66411 10.5265C5.44279 10.5253 5.22959 10.6124 5.07255 10.7682L4.97246 10.8683C4.7845 11.0558 4.51841 11.1425 4.25599 11.1014H4.13109C4.00415 11.0615 3.88942 10.9899 3.79747 10.8931C3.47443 10.568 3.47443 10.0432 3.79747 9.71811L3.9061 9.61843C4.14533 9.38042 4.21775 9.02198 4.08918 8.70993C3.96021 8.39624 3.65385 8.1916 3.31453 8.19363H3.1644C2.70425 8.19363 2.33117 7.82054 2.33117 7.36039C2.33117 6.89983 2.70425 6.52716 3.1644 6.52716H3.30599C3.6453 6.52878 3.95207 6.32414 4.08105 6.01045C4.2092 5.69839 4.13678 5.33996 3.89755 5.10195L3.79747 5.00227C3.47076 4.6776 3.46914 4.14991 3.7934 3.8232C4.11807 3.4965 4.64576 3.49447 4.97246 3.81914L5.07255 3.92736C5.31015 4.16659 5.669 4.23901 5.98065 4.11044C6.29474 3.98147 6.49898 3.67511 6.49735 3.33579V3.16898C6.49735 2.70883 6.87044 2.33575 7.33059 2.33575C7.79074 2.33575 8.16382 2.70883 8.16382 3.16898V3.31057C8.1622 3.65029 8.36644 3.95665 8.68053 4.08562C8.99218 4.21378 9.35102 4.14177 9.58863 3.90213L9.68871 3.80245C10.013 3.47575 10.5411 3.47372 10.8678 3.79798C11.1945 4.12265 11.1961 4.65034 10.8718 4.97704L10.7636 5.07713C10.5244 5.31473 10.452 5.67358 10.5801 5.98523C10.7091 6.29932 11.0159 6.50356 11.3552 6.50193H11.4968C11.9569 6.50193 12.33 6.87502 12.33 7.33517C12.33 7.79532 11.9569 8.1684 11.4968 8.1684Z" fill="#FFBB01"/>
</svg>
